<?xml version="1.0" encoding="UTF-8"?>
<!-- Do not edit this file with editors other than diagrams.net -->
<!DOCTYPE svg PUBLIC "-//W3C//DTD SVG 1.1//EN" "http://www.w3.org/Graphics/SVG/1.1/DTD/svg11.dtd">
<svg xmlns="http://www.w3.org/2000/svg" xmlns:xlink="http://www.w3.org/1999/xlink" version="1.1" width="742px" height="582px" viewBox="-0.5 -0.5 742 582" content="&lt;mxfile host=&quot;Electron&quot; modified=&quot;2026-02-04T08:26:51.368Z&quot; agent=&quot;5.0 (Windows NT 10.0; Win64; x64) AppleWebKit/537.36 (KHTML, like Gecko) draw.io/17.4.2 Chrome/100.0.4896.60 Electron/18.0.1 Safari/537.36&quot; etag=&quot;NyOY5kYQDCwl5A9rXi-1&quot; version=&quot;17.4.2&quot; type=&quot;device&quot;&gt;&lt;diagram id=&quot;EAgB05EPyNpRmU0gLMrN&quot; name=&quot;第 1 页&quot;&gt;7V3Llps4EP2aXsZHEg/BMtN5zZzJnJyTxSRLxahtMhh5ZBzb8/UjzMMgdce4ARVOuxeJkUHA1S1V1dXDd879av9esvXyo4h4ckdQtL9z3twR8spDWP2XlxyKkoAERcFCxlFRhE8Fn+P/eFmIytJtHPFN68RMiCSL1+3CuUhTPs9aZUxKsWuf9iCS9l3XbMGNgs9zlpilf8dRtqzegp7KP/B4sazujP2w+GbFqpPLN9ksWSR2jSLn7Z1zL4XIik+r/T1PcvAqXIrr3j3xbf1gkqdZlwt2v5G//ni3896H7PDw+kP09veP/74qa/nBkm35wuXDZocKAZ5Gr3Mg1dE8YZtNPL9zfpNim0Y8rxmpo00mxT/8XiRCHq9x0PGv/qZCDquSon4eGbCf3gPX6ChacbHimTyoU3Yn/L0S02UD+qpM8oRl8Y929aykwaKurr7DJxGrGxNUUpZgxy2uKRlLKWrXsRFbOeflZU3AjZpou6YAaTVlTC54ZtSkPjRe/FR0bNALGpd0aFzVDp/Lw1Sk3GhaIbOlWIiUJX8KsS7b8DvPskNpq2ybCVXE93H2pfw6//w1v37mlUdv9mV1x4NDTRsms4pb5d2PZe/i/EWLCx5jnyosT8EXsk9xTB6+1HWrg8aD5oenJz0eVY/albUK3CM7ftIqZc9RtP1PzvMet4Le9KZkRgKXUExc6vqYtigaOnhGsUdJQD3iOQHuRFjzLuoOber7aIYaf6STSQ1lCI71Xq7mGW7xbDCWnWWP+4v0oUivKbDbh7oGdVRrsNVd7mx9xQGct9uSs4hLk1NJosKUvFdjm3URnDzE+5xPZUv/4DLj+0v9YA2Np0ETesVxx0Z+rD1b8F2KlWdgFa/WyoGAI6V6uscdMRRSPoBnPnnjrw0/PUHPfHLGw/aZg3nmwmcO75qRT2cqs/ACX30MQl9zzTSchY2/wGo/SA3GqrQsXqQN236IFVktWzaemmUHIJaNvKZtIxXgBZO171ZEhM9Yd/7Un7iMVeNwObzF464m38jYhzX5Kpwp+YuRHimNbNchDF/dsMVXiuh18PV8pjgVxvrOOIzFOIBlbKUM3oKns7KGvdCpe0cajERL6I4Ud5FSx1TbroWUNrW2zrR0yTi0JFSnpW+ZljcR+NlDEIMS7AlBrjfBUJtgYeDNsEsCjxb/OnbZ1kVpHZxtM4TbjFPJ808519AaUKjFdyqfPRPg5Ud6hAfRvU4k0HT7qiG98m1sCrS3aHDkwYcBk5SxlDQjGvQhxTNsKuM2SEraohBSzuAqmHotohB9QpzszV6q+3R3FjinP88ueSEGK1r+fLKsRZewFoShI4lAtX5eMRRbzmrM4YiViLbw4w+hDzz+gEEGIK7CWi/yMQNaazUB8Ky1OuNM+cG1ddb+xLK1ggwyXGGEblMa685KfyRW+h4oK4k5jqDuxOUDm1t3Iwi1p/KE0MPYBELNbrmR6cmGEzBa3+lqtOMEfjjwtcQa+8+cIqq8kqdVpQeRI88KrSh9k44mJB11Z/g4gjoOyS/E8Js4OsV5htUSqPOD5eEoHFfdeDtrxcT2yhQYQfRGzIGI6Yw0HY5UPAAj5m1m9pjD5d0J1lda75f9mPLitFjw3L7ipbCHgLLHlGAlX8SbjMuNSaOR9elQ8/QYXFkwxUDJN7y5SCgVOWNS21gZg8YEhbBYOaZEpWNlHybsOlODyRSrjhSaCK8InhyvTOXjUcAAsKKTI5c5pU315pZxwaGjcQhB9+OOqS3sYmlbOVf+7akJtmDAmLlt8Si2kXHbyAQuNDBmbsWkZAfrwGgKX30MBgxEunGFM2ysDrW4ZRuc36djpFlgri5E217R4kBMJZn40oGrIuY4A/cmMbFlkc6BmE/SfanV8xbjXbc0052UoKsFXDOhHp85aEY90urWwslpvM8VFEeeit2ZVv5YTljPu4jl9XsuyEScaQ9ITGCkrDsxya9KTFNDmovVt4Z6lIiFamjLApKji7jggrcLsSbyNph01oLdjhbce2l4P/aYMhtLduywaRhaYXeW7UxfowStLrkgU0ouN7KLJtZduYlZ2xSkH3OgF7hNLsCC4ABwN2tKsAuecsky62sBHKTrfuARzE0InKIQ6HXdC9gbac8lr9oeuooBQsspCLQOeI6XL1EJ7M7KvpOb++1VDKEE3rgzEHf8vvOP+3HH1OR4al3pcLXeFz5O8ExJ6Bps6txS8Cu3Kd9WlNCPOyA7h/Xvj88GfC+FPbDeHGKh2409g7EH2J9DSIfXmd9azG67cof2FY6eym5DfYSN2E1vPVOXjDh8mAk+oOaZWh2TcT7BFnbo0USq+i1AMKRM4W6dMNu4+E9tPwQGi6kbfYubv2SietilyKBxgp/K7psiyVrGAhwY7EADYyoAq+2+waCIH48td0BE64BqAMBwMhWBuUijOIuF9aVFjqf7c3B0zJx3Ey9aLHqIU/ubUen9dQiNE8g2Jo34fHIDtPDb9HTe4XmksSekj5JiArnDsz/1DU1e5iSv7jQFla/8ac9AeYlDUZ2ZQ0GlK9/MheNUoZwC7GGpx1fw6YuZ/qZsZX+JsjElGXqupG8mwLtYxqntZe0mZ8ChoY+kvMUPPttFBhvxDYZGxsx5QZBBmi4bQMtJ1Exy8z7YNi6GSkKghVpq5rdim623zS1GIpn7SMtQGb8HTqGRMtOHT1J8z9/cdr+jsYiOtzmCOpRCZM1ETLL18qOIeH7G/w==&lt;/diagram&gt;&lt;/mxfile&gt;" style="background-color: rgb(255, 255, 255);"><defs/><g><path d="M 214 50 L 248.91 76.18" fill="none" stroke="#000000" stroke-miterlimit="10" pointer-events="stroke"/><path d="M 253.11 79.33 L 245.41 77.93 L 248.91 76.18 L 249.61 72.33 Z" fill="#000000" stroke="#000000" stroke-miterlimit="10" pointer-events="all"/><path d="M 277 105 L 320.63 105" fill="none" stroke="#000000" stroke-miterlimit="10" pointer-events="stroke"/><path d="M 325.88 105 L 318.88 108.5 L 320.63 105 L 318.88 101.5 Z" fill="#000000" stroke="#000000" stroke-miterlimit="10" pointer-events="all"/><path d="M 214 50 L 181.49 78.15" fill="none" stroke="#000000" stroke-miterlimit="10" pointer-events="stroke"/><path d="M 177.52 81.59 L 180.52 74.36 L 181.49 78.15 L 185.11 79.65 Z" fill="#000000" stroke="#000000" stroke-miterlimit="10" pointer-events="all"/><ellipse cx="159" cy="100" rx="25" ry="25" fill="rgb(255, 255, 255)" stroke="rgb(0, 0, 0)" pointer-events="all"/><g fill="rgb(0, 0, 0)" font-family="Helvetica" text-anchor="middle" font-size="12px"><text x="158.5" y="97.5">param </text><text x="158.5" y="111.5">header</text></g><ellipse cx="352" cy="105" rx="25" ry="25" fill="rgb(255, 255, 255)" stroke="rgb(0, 0, 0)" pointer-events="all"/><g fill="rgb(0, 0, 0)" font-family="Helvetica" text-anchor="middle" font-size="12px"><text x="351.5" y="102.5">import</text><text x="351.5" y="116.5">header</text></g><path d="M 252 130 L 252 233.63" fill="none" stroke="#000000" stroke-miterlimit="10" pointer-events="stroke"/><path d="M 252 238.88 L 248.5 231.88 L 252 233.63 L 255.5 231.88 Z" fill="#000000" stroke="#000000" stroke-miterlimit="10" pointer-events="all"/><ellipse cx="252" cy="105" rx="25" ry="25" fill="rgb(255, 255, 255)" stroke="rgb(0, 0, 0)" pointer-events="all"/><g fill="rgb(0, 0, 0)" font-family="Helvetica" text-anchor="middle" font-size="12px"><text x="251.5" y="102.5">design</text><text x="251.5" y="116.5">file</text></g><path d="M 229.75 254.4 L 132.76 224.55" fill="none" stroke="#000000" stroke-miterlimit="10" pointer-events="stroke"/><path d="M 127.75 223.01 L 135.47 221.72 L 132.76 224.55 L 133.41 228.41 Z" fill="#000000" stroke="#000000" stroke-miterlimit="10" pointer-events="all"/><path d="M 229.45 275.35 L 146.22 293.63" fill="none" stroke="#000000" stroke-miterlimit="10" pointer-events="stroke"/><path d="M 141.09 294.76 L 147.18 289.84 L 146.22 293.63 L 148.68 296.68 Z" fill="#000000" stroke="#000000" stroke-miterlimit="10" pointer-events="all"/><path d="M 252 290 L 282.32 381.28" fill="none" stroke="#000000" stroke-miterlimit="10" pointer-events="stroke"/><path d="M 283.97 386.26 L 278.44 380.72 L 282.32 381.28 L 285.09 378.51 Z" fill="#000000" stroke="#000000" stroke-miterlimit="10" pointer-events="all"/><path d="M 269.68 282.68 L 454.64 401.56" fill="none" stroke="#000000" stroke-miterlimit="10" pointer-events="stroke"/><path d="M 459.06 404.4 L 451.28 403.56 L 454.64 401.56 L 455.06 397.67 Z" fill="#000000" stroke="#000000" stroke-miterlimit="10" pointer-events="all"/><path d="M 277 265 L 443.79 248.16" fill="none" stroke="#000000" stroke-miterlimit="10" pointer-events="stroke"/><path d="M 449.01 247.63 L 442.4 251.81 L 443.79 248.16 L 441.7 244.85 Z" fill="#000000" stroke="#000000" stroke-miterlimit="10" pointer-events="all"/><path d="M 277.55 274.45 L 378.28 291.91" fill="none" stroke="#000000" stroke-miterlimit="10" pointer-events="stroke"/><path d="M 383.45 292.81 L 375.95 295.06 L 378.28 291.91 L 377.15 288.16 Z" fill="#000000" stroke="#000000" stroke-miterlimit="10" pointer-events="all"/><path d="M 252 290 L 177.84 343.59" fill="none" stroke="#000000" stroke-miterlimit="10" pointer-events="stroke"/><path d="M 173.58 346.67 L 177.21 339.73 L 177.84 343.59 L 181.31 345.4 Z" fill="#000000" stroke="#000000" stroke-miterlimit="10" pointer-events="all"/><path d="M 239.5 243.65 L 216.17 208.01" fill="none" stroke="#000000" stroke-miterlimit="10" pointer-events="stroke"/><path d="M 213.29 203.61 L 220.05 207.55 L 216.17 208.01 L 214.2 211.39 Z" fill="#000000" stroke="#000000" stroke-miterlimit="10" pointer-events="all"/><path d="M 269.68 247.32 L 329.46 196.79" fill="none" stroke="#000000" stroke-miterlimit="10" pointer-events="stroke"/><path d="M 333.47 193.4 L 330.38 200.59 L 329.46 196.79 L 325.86 195.25 Z" fill="#000000" stroke="#000000" stroke-miterlimit="10" pointer-events="all"/><ellipse cx="252" cy="265" rx="25" ry="25" fill="rgb(255, 255, 255)" stroke="rgb(0, 0, 0)" pointer-events="all"/><g fill="rgb(0, 0, 0)" font-family="Helvetica" text-anchor="middle" font-size="12px"><text x="251.5" y="269.5">module</text></g><path d="M 91.32 187.32 L 67.5 166.83" fill="none" stroke="#000000" stroke-miterlimit="10" pointer-events="stroke"/><path d="M 63.53 163.41 L 71.11 165.32 L 67.5 166.83 L 66.55 170.63 Z" fill="#000000" stroke="#000000" stroke-miterlimit="10" pointer-events="all"/><path d="M 91.32 222.68 L 56.36 224.64" fill="none" stroke="#000000" stroke-miterlimit="10" pointer-events="stroke"/><path d="M 51.12 224.94 L 57.91 221.05 L 56.36 224.64 L 58.3 228.04 Z" fill="#000000" stroke="#000000" stroke-miterlimit="10" pointer-events="all"/><ellipse cx="109" cy="205" rx="25" ry="25" fill="rgb(255, 255, 255)" stroke="rgb(0, 0, 0)" pointer-events="all"/><g fill="rgb(0, 0, 0)" font-family="Helvetica" text-anchor="middle" font-size="12px"><text x="108.5" y="209.5">interface</text></g><path d="M 90 295 L 66.04 302.99" fill="none" stroke="#000000" stroke-miterlimit="10" pointer-events="stroke"/><path d="M 61.06 304.65 L 66.59 299.11 L 66.04 302.99 L 68.81 305.75 Z" fill="#000000" stroke="#000000" stroke-miterlimit="10" pointer-events="all"/><path d="M 115 320 L 96.71 342.39" fill="none" stroke="#000000" stroke-miterlimit="10" pointer-events="stroke"/><path d="M 93.39 346.46 L 95.1 338.82 L 96.71 342.39 L 100.52 343.25 Z" fill="#000000" stroke="#000000" stroke-miterlimit="10" pointer-events="all"/><path d="M 302 430 L 190.69 486.13" fill="none" stroke="#000000" stroke-miterlimit="10" pointer-events="stroke"/><path d="M 186 488.5 L 190.67 482.22 L 190.69 486.13 L 193.82 488.47 Z" fill="#000000" stroke="#000000" stroke-miterlimit="10" pointer-events="all"/><path d="M 302 430 L 252.3 484.3" fill="none" stroke="#000000" stroke-miterlimit="10" pointer-events="stroke"/><path d="M 248.75 488.18 L 250.9 480.65 L 252.3 484.3 L 256.06 485.37 Z" fill="#000000" stroke="#000000" stroke-miterlimit="10" pointer-events="all"/><path d="M 302 430 L 310.38 482.97" fill="none" stroke="#000000" stroke-miterlimit="10" pointer-events="stroke"/><path d="M 311.2 488.16 L 306.65 481.79 L 310.38 482.97 L 313.56 480.7 Z" fill="#000000" stroke="#000000" stroke-miterlimit="10" pointer-events="all"/><path d="M 302 430 L 372.97 485.1" fill="none" stroke="#000000" stroke-miterlimit="10" pointer-events="stroke"/><path d="M 377.12 488.31 L 369.44 486.79 L 372.97 485.1 L 373.73 481.26 Z" fill="#000000" stroke="#000000" stroke-miterlimit="10" pointer-events="all"/><ellipse cx="302" cy="405" rx="25" ry="25" fill="rgb(255, 255, 255)" stroke="rgb(0, 0, 0)" pointer-events="all"/><g fill="rgb(0, 0, 0)" font-family="Helvetica" text-anchor="middle" font-size="12px"><text x="301.5" y="409.5">registers</text></g><ellipse cx="185" cy="514" rx="25" ry="25" fill="rgb(255, 255, 255)" stroke="rgb(0, 0, 0)" pointer-events="all"/><g fill="rgb(0, 0, 0)" font-family="Helvetica" text-anchor="middle" font-size="12px"><text x="184.5" y="511.5">reset</text><text x="184.5" y="525.5">no en</text></g><ellipse cx="248" cy="514" rx="25" ry="25" fill="rgb(255, 255, 255)" stroke="rgb(0, 0, 0)" pointer-events="all"/><g fill="rgb(0, 0, 0)" font-family="Helvetica" text-anchor="middle" font-size="12px"><text x="247.5" y="511.5">reset</text><text x="247.5" y="525.5">en</text></g><ellipse cx="315" cy="514" rx="25" ry="25" fill="rgb(255, 255, 255)" stroke="rgb(0, 0, 0)" pointer-events="all"/><g fill="rgb(0, 0, 0)" font-family="Helvetica" text-anchor="middle" font-size="12px"><text x="314.5" y="511.5">no reset</text><text x="314.5" y="525.5">no en</text></g><ellipse cx="378" cy="514" rx="25" ry="25" fill="rgb(255, 255, 255)" stroke="rgb(0, 0, 0)" pointer-events="all"/><g fill="rgb(0, 0, 0)" font-family="Helvetica" text-anchor="middle" font-size="12px"><text x="377.5" y="511.5">no reset</text><text x="377.5" y="525.5">en</text></g><ellipse cx="35" cy="305" rx="25" ry="25" fill="rgb(255, 255, 255)" stroke="rgb(0, 0, 0)" pointer-events="all"/><g fill="rgb(0, 0, 0)" font-family="Helvetica" text-anchor="middle" font-size="12px"><text x="34.5" y="309.5">reg</text></g><ellipse cx="75" cy="365" rx="25" ry="25" fill="rgb(255, 255, 255)" stroke="rgb(0, 0, 0)" pointer-events="all"/><g fill="rgb(0, 0, 0)" font-family="Helvetica" text-anchor="middle" font-size="12px"><text x="74.5" y="369.5">wire</text></g><ellipse cx="45" cy="145" rx="25" ry="25" fill="rgb(255, 255, 255)" stroke="rgb(0, 0, 0)" pointer-events="all"/><g fill="rgb(0, 0, 0)" font-family="Helvetica" text-anchor="middle" font-size="12px"><text x="44.5" y="149.5">width</text></g><ellipse cx="25" cy="225" rx="25" ry="25" fill="rgb(255, 255, 255)" stroke="rgb(0, 0, 0)" pointer-events="all"/><g fill="rgb(0, 0, 0)" font-family="Helvetica" text-anchor="middle" font-size="12px"><text x="24.5" y="229.5">array</text></g><path d="M 502.68 387.32 L 557.32 310.2" fill="none" stroke="#000000" stroke-miterlimit="10" pointer-events="stroke"/><path d="M 560.35 305.91 L 559.16 313.65 L 557.32 310.2 L 553.45 309.6 Z" fill="#000000" stroke="#000000" stroke-miterlimit="10" pointer-events="all"/><path d="M 510 405 L 554.63 405" fill="none" stroke="#000000" stroke-miterlimit="10" pointer-events="stroke"/><path d="M 559.88 405 L 552.88 408.5 L 554.63 405 L 552.88 401.5 Z" fill="#000000" stroke="#000000" stroke-miterlimit="10" pointer-events="all"/><path d="M 502.68 422.68 L 562.66 453.42" fill="none" stroke="#000000" stroke-miterlimit="10" pointer-events="stroke"/><path d="M 567.33 455.81 L 559.5 455.73 L 562.66 453.42 L 562.69 449.5 Z" fill="#000000" stroke="#000000" stroke-miterlimit="10" pointer-events="all"/><path d="M 497.6 425.5 L 524.33 523.85" fill="none" stroke="#000000" stroke-miterlimit="10" pointer-events="stroke"/><path d="M 525.71 528.92 L 520.49 523.08 L 524.33 523.85 L 527.25 521.25 Z" fill="#000000" stroke="#000000" stroke-miterlimit="10" pointer-events="all"/><path d="M 485 430 L 456.83 523.9" fill="none" stroke="#000000" stroke-miterlimit="10" pointer-events="stroke"/><path d="M 455.32 528.93 L 453.98 521.22 L 456.83 523.9 L 460.69 523.23 Z" fill="#000000" stroke="#000000" stroke-miterlimit="10" pointer-events="all"/><ellipse cx="485" cy="405" rx="25" ry="25" fill="rgb(255, 255, 255)" stroke="rgb(0, 0, 0)" pointer-events="all"/><g fill="rgb(0, 0, 0)" font-family="Helvetica" text-anchor="middle" font-size="12px"><text x="484.5" y="402.5">comb</text><text x="484.5" y="416.5">logic</text></g><path d="M 475 270 L 484.42 373.66" fill="none" stroke="#000000" stroke-miterlimit="10" pointer-events="stroke"/><path d="M 484.9 378.89 L 480.78 372.23 L 484.42 373.66 L 487.75 371.6 Z" fill="#000000" stroke="#000000" stroke-miterlimit="10" pointer-events="all"/><ellipse cx="475" cy="245" rx="25" ry="25" fill="rgb(255, 255, 255)" stroke="rgb(0, 0, 0)" pointer-events="all"/><g fill="rgb(0, 0, 0)" font-family="Helvetica" text-anchor="middle" font-size="12px"><text x="474.5" y="242.5">always</text><text x="474.5" y="256.5">comb</text></g><path d="M 387.32 322.68 L 324.28 382.92" fill="none" stroke="#000000" stroke-miterlimit="10" pointer-events="stroke"/><path d="M 320.49 386.55 L 323.13 379.18 L 324.28 382.92 L 327.96 384.24 Z" fill="#000000" stroke="#000000" stroke-miterlimit="10" pointer-events="all"/><path d="M 422.68 322.68 L 466.07 379.99" fill="none" stroke="#000000" stroke-miterlimit="10" pointer-events="stroke"/><path d="M 469.24 384.17 L 462.22 380.71 L 466.07 379.99 L 467.8 376.48 Z" fill="#000000" stroke="#000000" stroke-miterlimit="10" pointer-events="all"/><ellipse cx="405" cy="305" rx="25" ry="25" fill="rgb(255, 255, 255)" stroke="rgb(0, 0, 0)" pointer-events="all"/><g fill="rgb(0, 0, 0)" font-family="Helvetica" text-anchor="middle" font-size="12px"><text x="404.5" y="309.5">generate</text></g><path d="M 611 305 L 683.83 286.56" fill="none" stroke="#000000" stroke-miterlimit="10" pointer-events="stroke"/><path d="M 688.92 285.27 L 682.99 290.39 L 683.83 286.56 L 681.27 283.6 Z" fill="#000000" stroke="#000000" stroke-miterlimit="10" pointer-events="all"/><path d="M 611 305 L 691.6 344.52" fill="none" stroke="#000000" stroke-miterlimit="10" pointer-events="stroke"/><path d="M 696.32 346.83 L 688.49 346.89 L 691.6 344.52 L 691.57 340.61 Z" fill="#000000" stroke="#000000" stroke-miterlimit="10" pointer-events="all"/><path d="M 611 305 L 693.44 412.27" fill="none" stroke="#000000" stroke-miterlimit="10" pointer-events="stroke"/><path d="M 696.64 416.44 L 689.6 413.02 L 693.44 412.27 L 695.15 408.75 Z" fill="#000000" stroke="#000000" stroke-miterlimit="10" pointer-events="all"/><ellipse cx="586" cy="305" rx="25" ry="25" fill="rgb(255, 255, 255)" stroke="rgb(0, 0, 0)" pointer-events="all"/><g fill="rgb(0, 0, 0)" font-family="Helvetica" text-anchor="middle" font-size="12px"><text x="585.5" y="309.5">enc</text></g><path d="M 611 405 L 693.22 307.54" fill="none" stroke="#000000" stroke-miterlimit="10" pointer-events="stroke"/><path d="M 696.6 303.53 L 694.76 311.14 L 693.22 307.54 L 689.41 306.63 Z" fill="#000000" stroke="#000000" stroke-miterlimit="10" pointer-events="all"/><path d="M 611 405 L 684.32 367.88" fill="none" stroke="#000000" stroke-miterlimit="10" pointer-events="stroke"/><path d="M 689 365.51 L 684.34 371.79 L 684.32 367.88 L 681.18 365.54 Z" fill="#000000" stroke="#000000" stroke-miterlimit="10" pointer-events="all"/><path d="M 611 405 L 684.05 432.74" fill="none" stroke="#000000" stroke-miterlimit="10" pointer-events="stroke"/><path d="M 688.95 434.6 L 681.17 435.39 L 684.05 432.74 L 683.65 428.85 Z" fill="#000000" stroke="#000000" stroke-miterlimit="10" pointer-events="all"/><path d="M 611 405 L 692.71 482.93" fill="none" stroke="#000000" stroke-miterlimit="10" pointer-events="stroke"/><path d="M 696.51 486.55 L 689.03 484.25 L 692.71 482.93 L 693.86 479.19 Z" fill="#000000" stroke="#000000" stroke-miterlimit="10" pointer-events="all"/><ellipse cx="586" cy="405" rx="25" ry="25" fill="rgb(255, 255, 255)" stroke="rgb(0, 0, 0)" pointer-events="all"/><g fill="rgb(0, 0, 0)" font-family="Helvetica" text-anchor="middle" font-size="12px"><text x="585.5" y="409.5">dec</text></g><ellipse cx="586" cy="474" rx="25" ry="25" fill="rgb(255, 255, 255)" stroke="rgb(0, 0, 0)" pointer-events="all"/><g fill="rgb(0, 0, 0)" font-family="Helvetica" text-anchor="middle" font-size="12px"><text x="585.5" y="471.5">arith</text><text x="585.5" y="485.5">logic</text></g><ellipse cx="715" cy="285" rx="25" ry="25" fill="rgb(255, 255, 255)" stroke="rgb(0, 0, 0)" pointer-events="all"/><g fill="rgb(0, 0, 0)" font-family="Helvetica" text-anchor="middle" font-size="12px"><text x="714.5" y="289.5">pla</text></g><ellipse cx="715" cy="365" rx="25" ry="25" fill="rgb(255, 255, 255)" stroke="rgb(0, 0, 0)" pointer-events="all"/><g fill="rgb(0, 0, 0)" font-family="Helvetica" text-anchor="middle" font-size="12px"><text x="714.5" y="362.5">bin</text><text x="714.5" y="376.5">onehot</text></g><ellipse cx="715" cy="435" rx="25" ry="25" fill="rgb(255, 255, 255)" stroke="rgb(0, 0, 0)" pointer-events="all"/><g fill="rgb(0, 0, 0)" font-family="Helvetica" text-anchor="middle" font-size="12px"><text x="714.5" y="439.5">prio</text></g><ellipse cx="526" cy="555" rx="25" ry="25" fill="rgb(255, 255, 255)" stroke="rgb(0, 0, 0)" pointer-events="all"/><g fill="rgb(0, 0, 0)" font-family="Helvetica" text-anchor="middle" font-size="12px"><text x="525.5" y="552.5">mux</text><text x="525.5" y="566.5">demux</text></g><ellipse cx="455" cy="555" rx="25" ry="25" fill="rgb(255, 255, 255)" stroke="rgb(0, 0, 0)" pointer-events="all"/><g fill="rgb(0, 0, 0)" font-family="Helvetica" text-anchor="middle" font-size="12px"><text x="454.5" y="559.5">condition</text></g><ellipse cx="115" cy="295" rx="25" ry="25" fill="rgb(255, 255, 255)" stroke="rgb(0, 0, 0)" pointer-events="all"/><g fill="rgb(0, 0, 0)" font-family="Helvetica" text-anchor="middle" font-size="12px"><text x="114.5" y="292.5">sig</text><text x="114.5" y="306.5">define</text></g><path d="M 137.32 382.68 L 106.58 422.29" fill="none" stroke="#000000" stroke-miterlimit="10" pointer-events="stroke"/><path d="M 103.36 426.44 L 104.89 418.76 L 106.58 422.29 L 110.42 423.05 Z" fill="#000000" stroke="#000000" stroke-miterlimit="10" pointer-events="all"/><path d="M 155 390 L 155 413.63" fill="none" stroke="#000000" stroke-miterlimit="10" pointer-events="stroke"/><path d="M 155 418.88 L 151.5 411.88 L 155 413.63 L 158.5 411.88 Z" fill="#000000" stroke="#000000" stroke-miterlimit="10" pointer-events="all"/><path d="M 172.68 382.68 L 182.82 392.82" fill="none" stroke="#000000" stroke-miterlimit="10" pointer-events="stroke"/><path d="M 186.53 396.53 L 179.11 394.06 L 182.82 392.82 L 184.06 389.11 Z" fill="#000000" stroke="#000000" stroke-miterlimit="10" pointer-events="all"/><ellipse cx="155" cy="365" rx="25" ry="25" fill="rgb(255, 255, 255)" stroke="rgb(0, 0, 0)" pointer-events="all"/><g fill="rgb(0, 0, 0)" font-family="Helvetica" text-anchor="middle" font-size="12px"><text x="154.5" y="369.5">instance</text></g><ellipse cx="85" cy="445" rx="25" ry="25" fill="rgb(255, 255, 255)" stroke="rgb(0, 0, 0)" pointer-events="all"/><g fill="rgb(0, 0, 0)" font-family="Helvetica" text-anchor="middle" font-size="12px"><text x="84.5" y="449.5">name</text></g><ellipse cx="155" cy="445" rx="25" ry="25" fill="rgb(255, 255, 255)" stroke="rgb(0, 0, 0)" pointer-events="all"/><g fill="rgb(0, 0, 0)" font-family="Helvetica" text-anchor="middle" font-size="12px"><text x="154.5" y="449.5">wiring</text></g><ellipse cx="205" cy="415" rx="25" ry="25" fill="rgb(255, 255, 255)" stroke="rgb(0, 0, 0)" pointer-events="all"/><g fill="rgb(0, 0, 0)" font-family="Helvetica" text-anchor="middle" font-size="12px"><text x="204.5" y="419.5">param</text></g><ellipse cx="195" cy="185" rx="25" ry="25" fill="rgb(255, 255, 255)" stroke="rgb(0, 0, 0)" pointer-events="all"/><g fill="rgb(0, 0, 0)" font-family="Helvetica" text-anchor="middle" font-size="12px"><text x="194.5" y="189.5">param</text></g><ellipse cx="715" cy="505" rx="25" ry="25" fill="rgb(255, 255, 255)" stroke="rgb(0, 0, 0)" pointer-events="all"/><g fill="rgb(0, 0, 0)" font-family="Helvetica" text-anchor="middle" font-size="12px"><text x="714.5" y="509.5">inst</text></g><ellipse cx="352" cy="175" rx="25" ry="25" fill="rgb(255, 255, 255)" stroke="rgb(0, 0, 0)" pointer-events="all"/><g fill="rgb(0, 0, 0)" font-family="Helvetica" text-anchor="middle" font-size="12px"><text x="351.5" y="172.5">output</text><text x="351.5" y="186.5">drive</text></g><ellipse cx="215" cy="25" rx="25" ry="25" fill="rgb(255, 255, 255)" stroke="rgb(0, 0, 0)" pointer-events="all"/><g fill="rgb(0, 0, 0)" font-family="Helvetica" text-anchor="middle" font-size="12px"><text x="214.5" y="29.5">Project</text></g></g></svg>